<svg width="36" height="36" viewBox="0 0 36 36" fill="none" xmlns="http://www.w3.org/2000/svg">
<path d="M18 36C27.8471 36 36 27.8294 36 18C36 8.15294 27.8294 0 17.9824 0C8.15294 0 0 8.15294 0 18C0 27.8294 8.17059 36 18 36ZM11.7706 25.6941C10.9765 25.6941 10.3235 25.0235 10.3235 24.2118C10.3235 23.8235 10.4824 23.4706 10.7471 23.1882L15.9176 18.0176L10.7471 12.8471C10.4824 12.5647 10.3235 12.2118 10.3235 11.8235C10.3235 11.0118 10.9765 10.3765 11.7706 10.3765C12.1941 10.3765 12.5294 10.5176 12.7941 10.8L17.9824 15.9706L23.2235 10.7824C23.5235 10.4824 23.8412 10.3412 24.2294 10.3412C25.0235 10.3412 25.6765 10.9941 25.6765 11.7882C25.6765 12.1941 25.5529 12.5118 25.2529 12.8294L20.0647 18.0176L25.2353 23.1706C25.5176 23.4706 25.6588 23.8059 25.6588 24.2118C25.6588 25.0235 25.0059 25.6941 24.1941 25.6941C23.7882 25.6941 23.4353 25.5176 23.1529 25.2529L17.9824 20.0824L12.8471 25.2529C12.5647 25.5353 12.1941 25.6941 11.7706 25.6941Z" fill="#3C3C43" fill-opacity="0.6"/>
</svg>
