<svg width="27" height="27" viewBox="0 0 27 27" fill="none" xmlns="http://www.w3.org/2000/svg">
<path d="M13.5 27C9.75 27 6.5625 25.6875 3.9375 23.0625C1.3125 20.4375 0 17.25 0 13.5C0 9.75 1.3125 6.5625 3.9375 3.9375C6.5625 1.3125 9.75 0 13.5 0C13.85 0 14.194 0.0125001 14.532 0.0375001C14.87 0.0625001 15.201 0.0999999 15.525 0.15C14.5 0.875 13.681 1.819 13.068 2.982C12.455 4.145 12.149 5.401 12.15 6.75C12.15 9 12.9375 10.9125 14.5125 12.4875C16.0875 14.0625 18 14.85 20.25 14.85C21.625 14.85 22.8875 14.5435 24.0375 13.9305C25.1875 13.3175 26.125 12.499 26.85 11.475C26.9 11.8 26.9375 12.131 26.9625 12.468C26.9875 12.805 27 13.149 27 13.5C27 17.25 25.6875 20.4375 23.0625 23.0625C20.4375 25.6875 17.25 27 13.5 27ZM13.5 24C15.7 24 17.675 23.3935 19.425 22.1805C21.175 20.9675 22.45 19.3865 23.25 17.4375C22.75 17.5625 22.25 17.6625 21.75 17.7375C21.25 17.8125 20.75 17.85 20.25 17.85C17.175 17.85 14.556 16.7685 12.393 14.6055C10.23 12.4425 9.149 9.824 9.15 6.75C9.15 6.25 9.1875 5.75 9.2625 5.25C9.3375 4.75 9.4375 4.25 9.5625 3.75C7.6125 4.55 6.031 5.825 4.818 7.575C3.605 9.325 2.999 11.3 3 13.5C3 16.4 4.025 18.875 6.075 20.925C8.125 22.975 10.6 24 13.5 24Z" fill="black"/>
</svg>
