<?xml version="1.0" standalone="no"?>
<!DOCTYPE svg PUBLIC "-//W3C//DTD SVG 20010904//EN" "http://www.w3.org/TR/2001/REC-SVG-20010904/DTD/svg10.dtd">
<svg version="1.0" xmlns="http://www.w3.org/2000/svg"
    width="1320.000000pt" height="1000.000000pt" viewBox="0 0 1320.000000 1000.000000"
    preserveAspectRatio="xMidYMid meet">

    <g transform="translate(0.000000,1000.000000) scale(0.100000,-0.100000)"
        fill="#000000" stroke="none">
        <path
            d="M6717 7153 c-13 -62 -588 -2589 -593 -2605 -5 -17 8 -18 174 -18
l178 0 299 1313 c164 721 300 1318 302 1325 4 9 -35 12 -175 12 l-179 0 -6
-27z" />
        <path
            d="M5328 6388 l-578 -450 0 -83 0 -83 571 -443 c314 -244 575 -445 580
-447 5 -2 9 84 9 211 l0 215 -327 255 c-181 140 -339 263 -351 274 l-24 19
351 273 351 273 0 219 c0 120 -1 219 -2 219 -2 -1 -263 -204 -580 -452z" />
        <path
            d="M7290 6621 l0 -219 351 -273 351 -273 -24 -19 c-12 -11 -170 -134
-350 -274 l-328 -255 0 -215 c0 -127 4 -213 9 -211 5 2 266 203 580 447 l571
443 0 83 0 83 -537 419 c-296 230 -557 433 -580 451 l-43 33 0 -220z" />
        <path d="M1980 3415 l0 -575 145 0 145 0 0 575 0 575 -145 0 -145 0 0 -575z" />
        <path
            d="M2510 3415 l0 -575 141 0 141 0 -4 363 -3 362 71 -210 c39 -115 96
-279 125 -362 l54 -153 121 0 122 0 56 163 c31 89 90 261 131 382 42 121 73
209 70 195 -3 -14 -8 -186 -12 -382 l-6 -358 146 0 147 0 0 575 0 575 -196 -2
-195 -3 -45 -135 c-24 -74 -80 -247 -125 -385 -44 -137 -82 -257 -85 -265 -3
-8 -65 165 -138 385 l-132 400 -192 3 -192 2 0 -575z" />
        <path
            d="M4040 3415 l0 -575 150 0 150 0 0 230 0 230 23 0 c18 0 51 -45 175
-230 l152 -230 175 0 176 0 -52 78 c-29 42 -119 175 -201 295 -83 120 -147
224 -145 231 3 6 89 130 191 274 102 145 186 265 186 267 0 3 -75 5 -167 5
l-168 0 -148 -215 c-124 -180 -152 -215 -173 -215 l-24 0 0 215 0 215 -150 0
-150 0 0 -575z" />
        <path
            d="M5150 3415 l0 -577 298 4 c276 4 302 6 367 27 233 76 367 283 367
566 0 280 -122 457 -367 533 -39 12 -119 16 -357 19 l-308 5 0 -577z m600 298
c40 -22 59 -40 81 -79 79 -139 52 -415 -48 -494 -53 -41 -90 -50 -214 -50
l-119 0 0 325 0 325 124 0 c116 0 127 -2 176 -27z" />
        <path
            d="M6240 3983 c0 -5 92 -262 204 -573 l204 -565 119 -3 118 -2 94 272
c52 150 97 276 100 280 3 4 51 -119 106 -272 l100 -280 116 0 117 0 11 28 c13
33 381 1113 381 1118 0 3 -64 3 -142 2 l-142 -3 -108 -325 c-59 -179 -108
-335 -108 -348 0 -35 -17 -18 -25 25 -4 21 -57 176 -117 345 l-111 308 -148 0
-148 0 24 -62 c13 -35 32 -86 44 -115 l20 -52 -68 -193 c-38 -106 -75 -219
-82 -252 l-13 -59 -22 89 c-13 49 -67 213 -121 364 l-98 275 -153 3 c-83 1
-152 -1 -152 -5z" />
        <path
            d="M8380 3415 l0 -575 260 0 c294 0 371 10 480 63 142 70 243 219 276
407 47 273 -56 518 -258 618 -107 52 -183 62 -489 62 l-269 0 0 -575z m595
299 c23 -11 54 -41 72 -67 81 -121 65 -403 -29 -495 -54 -51 -93 -62 -228 -62
l-120 0 0 326 0 326 133 -4 c110 -2 139 -6 172 -24z" />
        <path
            d="M9824 3665 c-186 -40 -287 -170 -301 -385 -13 -217 78 -382 242 -435
47 -16 88 -20 190 -20 119 0 135 2 185 26 78 37 114 71 149 141 17 34 30 62
29 64 -2 1 -55 12 -118 23 -78 14 -116 18 -119 10 -2 -6 -13 -22 -26 -36 -18
-22 -33 -27 -82 -31 -102 -7 -163 40 -163 127 l0 31 253 2 252 3 3 59 c2 32
-2 89 -7 126 -28 177 -120 272 -292 299 -81 14 -119 13 -195 -4z m177 -214
c21 -22 29 -39 29 -65 l0 -36 -110 0 c-122 0 -123 1 -96 64 19 45 52 66 104
66 35 0 49 -6 73 -29z" />
        <path
            d="M10394 3588 c13 -35 81 -217 151 -405 l127 -343 122 0 121 0 139 373
c77 204 146 387 153 405 l13 33 -146 -3 -147 -3 -43 -150 c-24 -82 -51 -183
-60 -223 l-18 -72 -22 77 c-13 43 -45 143 -72 223 l-49 145 -146 3 -147 3 24
-63z" />
    </g>
</svg>