<svg width="32" height="40" viewBox="0 0 32 40" fill="none" xmlns="http://www.w3.org/2000/svg">
<path d="M31.806 13.172C31.7111 12.955 31.5783 12.7566 31.414 12.586L19.414 0.586C19.2434 0.421664 19.045 0.288935 18.828 0.194C18.768 0.166 18.704 0.15 18.64 0.128C18.4726 0.0712593 18.2984 0.0369608 18.122 0.026C18.08 0.022 18.042 0 18 0H4C1.794 0 0 1.794 0 4V36C0 38.206 1.794 40 4 40H28C30.206 40 32 38.206 32 36V14C32 13.958 31.978 13.92 31.974 13.876C31.963 13.6996 31.9287 13.5254 31.872 13.358C31.8533 13.294 31.8313 13.232 31.806 13.172ZM25.172 12H20V6.828L25.172 12ZM4 36V4H16V14C16 14.5304 16.2107 15.0391 16.5858 15.4142C16.9609 15.7893 17.4696 16 18 16H28L28.004 36H4Z" fill="#848486"/>
</svg>
